<svg xmlns="http://www.w3.org/2000/svg" width="534" height="453" viewBox="0 0 534 453"><defs><linearGradient id="a" x1="50%" x2="50%" y1="0%" y2="100%"><stop offset="0%" stop-color="#F46A00"/><stop offset="100%" stop-color="#F956A0"/></linearGradient><linearGradient id="b" x1="50%" x2="50%" y1="0%" y2="100%"><stop offset="0%" stop-color="#FCCF7E"/><stop offset="100%" stop-color="#F7B37E"/></linearGradient></defs><g fill="none" fill-rule="evenodd"><g stroke="url(#a)" stroke-width="2" transform="translate(1 176)"><path d="M0 21.5641L37.4988 0 75 21.5641l-.0008 43.1282-37.5004 21.5641L0 64.6923z"/><path d="M37.1287 87V43.8718L75 22.3077M37.8713 43.8718L0 22.3077"/></g><path fill="url(#b)" d="M0 21.5L37.4988 0 75 21.5l-.0008 43L37.4988 86 0 64.5z" transform="translate(407 194)"/><g stroke="url(#a)" stroke-width="2" transform="translate(458 2)"><path d="M0 21.5641L37.4988 0 75 21.5641l-.0008 43.1282-37.5004 21.5641L0 64.6923z"/><path d="M37.1287 87V43.8718L75 22.3077M37.8713 43.8718L0 22.3077"/></g><g stroke="url(#a)" stroke-width="2" transform="translate(59 367)"><path d="M0 12.3134L21.4993 0 43 12.3134l-.0005 24.6269-21.5002 12.3134L0 36.9403z"/><path d="M21.5 50V25.1244L43 12.6866M21.5 25.3731L0 12.6866"/></g><path stroke="url(#a)" d="M153.9522 285.1155L54 228" transform="translate(1 2)"/><path fill="url(#b)" d="M0 32.0647L55.4982 0 111 32.0647l-.0012 64.1293-55.5006 32.0646L0 96.194z" transform="translate(138 263)"/><path stroke="url(#a)" d="M167 384l-77-44" transform="matrix(-1 0 0 1 258 2)"/><g stroke="url(#a)" stroke-width="2" transform="translate(300 282)"><path d="M0 12.3134L21.4993 0 43 12.3134l-.0005 24.6269-21.5002 12.3134L0 36.9403z"/><path d="M21.5 50V25.1244L43 12.6866M21.5 25.3731L0 12.6866"/></g><path stroke="url(#a)" d="M423.81 294L339 245.5371" transform="matrix(-1 0 0 1 763.81 2)"/><g stroke="url(#a)" stroke-width="2" transform="translate(244 92)"><path d="M0 32.0647L55.4982 0 111 32.0647l-.0012 64.1293-55.5006 32.0646L0 96.194z"/><path d="M54.76 129V65.2414L111 33.3621M56.24 65.2414L0 33.362"/></g><g stroke="url(#a)" stroke-width="2" transform="translate(407 323)"><path d="M0 32.0647L55.4982 0 111 32.0647l-.0012 64.1293-55.5006 32.0646L0 96.194z"/><path d="M54.76 129V65.2414L111 33.3621M56.24 65.2414L0 33.362"/></g><path stroke="url(#a)" d="M269 219l-77-44" transform="matrix(-1 0 0 1 462 2)"/><g stroke="url(#a)" stroke-width="2" transform="translate(86 145)"><path d="M0 12.3134L21.4993 0 43 12.3134l-.0005 24.6269-21.5002 12.3134L0 36.9403z"/><path d="M21.5 50V25.1244L43 12.6866M21.5 25.3731L0 12.6866"/></g><g stroke="url(#a)" stroke-width="2" transform="translate(174 195)"><path d="M0 12.3134L21.4993 0 43 12.3134l-.0005 24.6269-21.5002 12.3134L0 36.9403z"/><path d="M21.5 50V25.1244L43 12.6866M21.5 25.3731L0 12.6866"/></g><path stroke="url(#a)" d="M95 190l-29-16" transform="matrix(-1 0 0 1 162 2)"/><path stroke="url(#a)" d="M477.0269 92.9318L406 53.7446" transform="matrix(-1 0 0 1 884.0269 2)"/><path fill="url(#b)" d="M373 87.3134L394.4993 75 416 87.3134l-.0005 24.6269-21.5002 12.3134L373 111.9403z" transform="translate(1 2)"/><path stroke="url(#a)" d="M386.5014 123L354 105.0682" transform="matrix(-1 0 0 1 741.5014 2)"/><path stroke="url(#a)" d="M194 218l-77-44m289 180l-77-44m77-95l-77-44" transform="translate(1 2)"/></g></svg>